<?xml version="1.0" standalone="no"?>
<!DOCTYPE svg PUBLIC "-//W3C//DTD SVG 20010904//EN"
 "http://www.w3.org/TR/2001/REC-SVG-20010904/DTD/svg10.dtd">
<svg version="1.0" xmlns="http://www.w3.org/2000/svg"
 width="556.000000pt" height="556.000000pt" viewBox="0 0 556.000000 556.000000"
 preserveAspectRatio="xMidYMid meet">
<metadata>
Created by potrace 1.14, written by Peter Selinger 2001-2017
</metadata>
<g transform="translate(0.000000,556.000000) scale(0.100000,-0.100000)"
fill="#000000" stroke="none">
<path d="M1148 5055 c-1 -2 -25 -5 -53 -8 -56 -6 -101 -19 -136 -38 -13 -7
-27 -12 -31 -11 -5 1 -8 -2 -8 -8 0 -5 -6 -10 -13 -10 -7 0 -27 -13 -45 -29
-17 -17 -32 -27 -32 -24 0 4 -20 -19 -85 -98 -7 -9 -16 -26 -20 -38 -3 -12
-11 -21 -16 -21 -6 0 -8 -4 -5 -8 3 -5 -1 -20 -9 -35 -7 -14 -11 -28 -8 -31 3
-2 1 -11 -3 -18 -10 -15 -14 -218 -4 -218 3 0 11 -19 17 -42 16 -59 80 -155
134 -200 24 -21 52 -45 62 -53 9 -8 17 -13 17 -10 0 6 52 -26 60 -36 3 -4 5
-515 5 -1136 l0 -1128 -37 -18 c-21 -10 -38 -23 -38 -28 0 -6 -4 -8 -8 -5 -19
12 -134 -115 -173 -191 -15 -30 -21 -46 -36 -108 -2 -11 -6 -51 -7 -90 -3
-129 44 -245 139 -339 105 -103 221 -152 355 -146 69 2 90 5 90 11 0 4 8 6 18
6 9 -1 49 14 87 33 73 36 177 130 205 185 8 17 19 33 25 37 5 4 7 8 3 8 -4 0
3 21 14 48 15 33 22 71 24 132 4 151 -36 249 -148 362 -38 37 -68 65 -68 62 0
-10 -100 49 -101 60 -1 6 -2 62 -3 124 -2 135 9 170 62 197 20 11 39 22 42 25
6 6 142 75 150 76 3 0 37 15 75 33 39 19 79 37 90 42 11 4 55 24 98 44 43 19
81 35 83 35 3 0 61 27 129 59 113 54 194 104 203 124 2 4 8 7 13 7 19 0 199
202 199 223 0 3 18 35 40 71 22 36 40 70 40 76 0 5 5 10 11 10 5 0 7 5 4 10
-3 6 -1 10 5 10 6 0 9 4 6 8 -3 5 5 29 18 53 27 50 100 262 112 324 5 22 9 43
10 48 1 4 2 14 3 22 0 8 22 26 49 41 26 15 62 38 80 51 17 13 32 21 32 18 0
-4 12 8 28 27 15 18 30 35 35 36 4 2 7 10 7 18 0 8 5 14 10 14 6 0 10 7 10 15
0 8 4 15 8 15 11 0 50 90 61 142 17 77 6 196 -24 273 -26 65 -87 153 -127 183
-9 7 -23 18 -30 25 -28 27 -119 71 -170 83 -5 1 -9 2 -10 4 -11 9 -152 14
-188 6 -51 -10 -81 -20 -130 -44 -65 -31 -62 -29 -123 -83 -90 -80 -147 -206
-149 -335 -1 -70 17 -169 35 -191 5 -7 6 -13 1 -13 -5 0 -4 -4 1 -8 6 -4 18
-20 27 -37 26 -46 92 -124 106 -125 6 0 12 -5 12 -10 0 -6 22 -22 50 -38 27
-15 50 -34 50 -42 0 -64 -128 -387 -175 -440 -8 -8 -14 -19 -15 -25 -4 -42
-151 -182 -234 -223 -37 -19 -72 -35 -79 -36 -7 -2 -56 -24 -110 -49 -54 -26
-104 -47 -112 -47 -8 0 -15 -5 -15 -11 0 -6 -7 -9 -15 -5 -8 3 -15 1 -15 -4 0
-6 -4 -10 -9 -10 -6 0 -49 -18 -96 -40 -47 -22 -90 -40 -94 -40 -5 0 -14 -6
-20 -14 -6 -7 -21 -13 -34 -12 l-22 1 0 770 0 770 24 22 c13 12 26 21 30 20 9
-3 103 63 124 87 43 50 54 63 77 101 13 22 25 44 26 50 5 26 10 40 16 45 13
10 25 113 22 176 -3 40 -15 94 -35 144 -25 66 -42 92 -97 148 -67 68 -160 126
-217 136 -17 2 -30 5 -30 6 0 2 -11 4 -25 5 -14 1 -37 5 -52 8 -14 3 -28 4
-30 2z m60 -259 c33 -5 121 -54 122 -68 0 -4 7 -16 15 -25 8 -10 16 -22 16
-28 0 -5 5 -15 10 -21 18 -22 10 -153 -11 -195 -21 -41 -91 -98 -134 -110 -46
-12 -105 -14 -139 -3 -35 11 -117 67 -117 81 0 7 -8 17 -17 22 -10 6 -14 11
-9 11 5 0 3 7 -4 14 -12 16 -18 136 -8 172 20 69 89 133 167 153 24 7 47 6
109 -3z m1399 -600 c34 -5 90 -31 108 -50 20 -21 59 -80 63 -96 9 -37 4 -140
-8 -171 -17 -42 -65 -95 -105 -116 -29 -16 -165 -34 -165 -23 0 3 -17 12 -37
19 -31 12 -126 91 -108 91 3 0 -1 10 -9 23 -26 39 -21 207 5 207 6 0 8 4 4 9
-5 10 87 95 105 97 5 1 11 2 13 4 1 1 10 3 20 5 11 2 21 6 24 8 4 5 33 3 90
-7z m-1392 -2562 c56 -10 105 -46 140 -101 26 -42 30 -57 29 -118 -1 -107 -48
-180 -143 -222 -105 -45 -252 15 -297 123 -21 49 -20 154 1 196 21 40 74 98
91 98 6 0 17 7 24 15 7 9 18 14 24 12 6 -2 20 -1 31 4 20 7 29 7 100 -7z"/>
<path d="M3778 3155 c-2 -2 -26 -6 -53 -8 -85 -8 -146 -27 -250 -78 -204 -99
-345 -276 -406 -509 -17 -67 -20 -226 -4 -298 l13 -64 -37 -15 c-48 -20 -85
-36 -151 -65 -30 -13 -104 -44 -164 -69 -106 -43 -143 -71 -131 -100 4 -8 49
-48 101 -89 53 -41 104 -82 114 -91 18 -15 16 -18 -57 -75 -41 -32 -85 -67
-97 -78 -11 -10 -29 -24 -39 -31 -24 -17 -29 -51 -10 -67 9 -7 68 -35 132 -63
l116 -50 0 -310 c0 -171 3 -315 7 -321 4 -6 74 -39 155 -74 209 -89 282 -120
328 -140 58 -26 420 -179 449 -190 20 -7 54 4 188 61 90 39 222 96 293 126 72
30 144 61 160 68 17 7 97 41 178 76 81 34 151 67 155 73 4 6 7 150 7 321 l1
310 117 50 c128 55 153 73 142 101 -3 11 -55 57 -115 104 -60 47 -109 90 -109
95 0 6 49 48 109 95 60 47 112 91 115 99 11 27 -21 52 -110 90 -49 21 -151 64
-225 96 -74 31 -138 61 -141 67 -3 5 0 35 7 66 13 55 12 201 -1 267 -26 127
-102 276 -190 374 -87 96 -241 188 -370 221 -64 16 -219 33 -227 25z m100
-111 c51 -33 110 -138 143 -252 l18 -64 -72 7 c-88 8 -211 7 -308 -1 -62 -5
-71 -4 -66 9 3 9 11 35 17 58 17 63 65 159 101 203 52 62 111 77 167 40z
m-287 -66 c-33 -59 -75 -170 -86 -230 -7 -34 -10 -37 -58 -48 -113 -27 -212
-68 -260 -109 -17 -15 -18 -14 -11 14 21 89 112 223 201 299 68 57 226 143
241 131 2 -2 -11 -27 -27 -57z m555 2 c126 -70 227 -184 290 -327 29 -64 31
-82 7 -61 -22 19 -93 55 -147 75 -47 17 -54 19 -116 33 l-46 11 -23 84 c-13
47 -41 120 -62 162 -22 43 -39 79 -39 80 0 5 97 -36 136 -57z m-162 -334 c32
-3 63 -9 68 -14 12 -12 22 -122 22 -242 0 -92 -10 -229 -17 -236 -24 -24 -460
-25 -483 -1 -7 7 -17 128 -19 222 -2 98 10 253 19 263 2 2 46 6 98 9 51 3 94
7 96 8 3 3 130 -3 216 -9z m-509 -63 c-8 -49 -8 -306 0 -367 l7 -48 -34 7
c-48 10 -157 55 -201 82 -49 31 -96 81 -103 110 -22 88 91 183 286 238 25 7
46 14 48 14 2 1 0 -16 -3 -36z m771 6 c170 -60 254 -135 240 -214 -8 -42 -63
-98 -129 -132 -49 -25 -179 -73 -199 -73 -5 0 -6 25 -3 58 10 82 10 193 1 300
-4 50 -5 92 -2 92 2 0 44 -14 92 -31z m-836 -493 c70 -20 85 -28 91 -47 29
-103 55 -174 85 -231 20 -41 29 -68 22 -68 -7 0 -51 19 -98 42 -115 57 -238
178 -292 288 -62 128 -62 127 29 81 43 -23 116 -52 163 -65z m1044 82 c-44
-142 -171 -296 -307 -373 -104 -58 -163 -71 -124 -28 20 24 81 174 97 241 7
30 17 55 24 56 80 21 223 74 261 96 28 17 51 30 53 30 2 0 0 -10 -4 -22z
m-1334 -98 c7 -17 28 -56 47 -87 18 -31 31 -58 28 -61 -3 -3 -69 -33 -148 -67
l-142 -61 -85 69 c-47 38 -86 72 -88 76 -2 6 15 15 78 40 14 6 81 35 150 65
69 30 130 54 136 55 6 1 17 -13 24 -29z m1598 -47 c100 -43 182 -80 182 -83 0
-9 -168 -140 -179 -140 -10 0 -247 100 -274 116 -17 9 -15 14 16 67 19 31 40
70 47 87 7 16 15 30 19 30 3 0 88 -35 189 -77z m-888 14 c74 0 152 3 172 5 37
6 38 5 32 -21 -15 -59 -54 -154 -85 -207 -73 -121 -169 -137 -243 -40 -31 41
-84 151 -96 199 -5 18 -12 42 -15 54 -7 21 -5 21 47 15 29 -3 114 -5 188 -5z
m-530 -218 c79 -70 236 -158 310 -173 19 -4 49 -11 65 -14 52 -12 257 -7 315
7 109 27 259 107 339 181 21 20 40 29 50 25 9 -3 67 -27 129 -53 98 -41 110
-48 90 -56 -13 -5 -51 -22 -86 -38 -34 -15 -64 -28 -66 -28 -4 0 -448 -187
-561 -237 -33 -15 -64 -26 -70 -26 -8 0 -793 330 -802 337 -2 1 241 106 247
106 3 0 21 -14 40 -31z m-338 -148 c24 -10 63 -27 88 -38 25 -11 186 -80 358
-153 171 -73 312 -135 312 -139 -1 -6 -139 -118 -166 -133 -7 -5 -169 59 -386
150 -205 87 -388 164 -406 172 -18 7 -31 16 -30 21 5 13 162 138 175 138 6 1
31 -7 55 -18z m1853 -48 c47 -37 85 -70 85 -73 0 -3 -39 -23 -87 -43 -49 -20
-232 -97 -407 -171 -176 -75 -325 -132 -331 -128 -7 4 -49 36 -94 72 -67 54
-79 66 -64 73 262 113 791 336 801 336 7 1 51 -29 97 -66z m-1565 -399 c183
-77 302 -123 315 -120 11 3 29 13 40 23 11 10 40 34 65 53 25 19 47 37 50 40
3 3 15 14 28 24 l22 19 0 -397 0 -397 -22 7 c-13 3 -41 15 -63 25 -61 27 -467
199 -471 199 -2 0 -29 12 -61 26 -32 15 -92 41 -133 59 l-75 32 -2 266 c0 147
2 267 6 267 3 0 139 -56 301 -126z m1438 -140 l-3 -267 -150 -64 c-82 -35
-170 -72 -195 -83 -146 -63 -472 -200 -476 -200 -2 0 -4 178 -4 395 l0 395
101 -80 c55 -44 106 -80 113 -80 7 0 143 56 302 124 159 69 295 125 302 125
10 1 12 -55 10 -265z"/>
</g>
</svg>
